<svg xmlns="http://www.w3.org/2000/svg" xmlns:xlink="http://www.w3.org/1999/xlink" width="500" zoomAndPan="magnify" viewBox="0 0 375 374.999991" height="500" preserveAspectRatio="xMidYMid meet" version="1.2"><defs/><g id="f9016f3076"><rect x="0" width="375" y="0" height="374.999991" style="fill:#ffffff;fill-opacity:1;stroke:none;"/><rect x="0" width="375" y="0" height="374.999991" style="fill:#eeecf9;fill-opacity:1;stroke:none;"/><path style=" stroke:none;fill-rule:nonzero;fill:#ea0e68;fill-opacity:1;" d="M 140.558594 172.273438 C 136.238281 173.753906 131.261719 172.773438 127.816406 169.328125 C 122.996094 164.507812 122.996094 156.695312 127.816406 151.875 C 132.636719 147.054688 140.449219 147.054688 145.269531 151.875 C 149.003906 155.605469 149.84375 161.132812 147.796875 165.675781 L 169.382812 165.539062 L 156.773438 178.148438 C 154.917969 176.984375 152.503906 177.25 150.945312 178.789062 L 137.722656 191.832031 L 140.558594 172.273438 "/><path style=" stroke:none;fill-rule:nonzero;fill:#8d198f;fill-opacity:1;" d="M 168.558594 199.5625 C 166.554688 203.664062 162.339844 206.488281 157.46875 206.488281 C 150.652344 206.488281 145.128906 200.960938 145.128906 194.148438 C 145.128906 187.332031 150.652344 181.804688 157.46875 181.804688 C 162.746094 181.804688 167.25 185.117188 169.011719 189.777344 L 184.179688 174.417969 L 184.179688 192.246094 C 182.042969 192.738281 180.527344 194.632812 180.511719 196.820312 L 180.386719 215.394531 L 168.558594 199.5625 "/><path style=" stroke:none;fill-rule:nonzero;fill:#00adef;fill-opacity:1;" d="M 207.65625 199.054688 C 209.136719 203.375 208.15625 208.351562 204.710938 211.796875 C 199.890625 216.617188 192.074219 216.617188 187.257812 211.796875 C 182.4375 206.976562 182.4375 199.164062 187.257812 194.34375 C 190.988281 190.613281 196.515625 189.769531 201.058594 191.816406 L 200.921875 170.230469 L 213.527344 182.839844 C 212.367188 184.695312 212.632812 187.109375 214.167969 188.667969 L 227.210938 201.890625 L 207.65625 199.054688 "/><path style=" stroke:none;fill-rule:nonzero;fill:#36ab9c;fill-opacity:1;" d="M 234.941406 171.054688 C 239.042969 173.058594 241.871094 177.273438 241.871094 182.144531 C 241.871094 188.960938 236.34375 194.488281 229.527344 194.488281 C 222.710938 194.488281 217.1875 188.960938 217.1875 182.144531 C 217.1875 176.867188 220.5 172.367188 225.160156 170.601562 L 209.796875 155.433594 L 227.628906 155.433594 C 228.121094 157.570312 230.011719 159.089844 232.203125 159.101562 L 250.773438 159.230469 L 234.941406 171.054688 "/><path style=" stroke:none;fill-rule:nonzero;fill:#81cd35;fill-opacity:1;" d="M 234.4375 131.957031 C 238.757812 130.476562 243.734375 131.457031 247.179688 134.902344 C 252 139.722656 252 147.535156 247.179688 152.355469 C 242.359375 157.175781 234.542969 157.175781 229.726562 152.355469 C 225.992188 148.625 225.152344 143.097656 227.199219 138.554688 L 205.613281 138.691406 L 218.222656 126.085938 C 220.078125 127.246094 222.488281 126.984375 224.050781 125.445312 L 237.269531 112.402344 L 234.4375 131.957031 "/><path style=" stroke:none;fill-rule:nonzero;fill:#f6ca0e;fill-opacity:1;" d="M 206.433594 104.671875 C 208.441406 100.570312 212.652344 97.746094 217.527344 97.746094 C 224.34375 97.746094 229.867188 103.269531 229.867188 110.085938 C 229.867188 116.902344 224.34375 122.425781 217.527344 122.425781 C 212.25 122.425781 207.746094 119.113281 205.984375 114.453125 L 190.816406 129.816406 L 190.816406 111.984375 C 192.949219 111.496094 194.46875 109.601562 194.484375 107.410156 L 194.609375 88.839844 L 206.433594 104.671875 "/><path style=" stroke:none;fill-rule:nonzero;fill:#ea5c26;fill-opacity:1;" d="M 167.339844 105.175781 C 165.859375 100.855469 166.839844 95.882812 170.285156 92.4375 C 175.105469 87.617188 182.917969 87.617188 187.738281 92.4375 C 192.558594 97.253906 192.558594 105.070312 187.738281 109.890625 C 184.007812 113.621094 178.480469 114.460938 173.9375 112.414062 L 174.074219 134 L 161.46875 121.390625 C 162.628906 119.535156 162.363281 117.125 160.828125 115.566406 L 147.785156 102.34375 L 167.339844 105.175781 "/><path style=" stroke:none;fill-rule:nonzero;fill:#b81554;fill-opacity:1;" d="M 140.050781 133.179688 C 135.949219 131.171875 133.125 126.960938 133.125 122.085938 C 133.125 115.269531 138.652344 109.746094 145.46875 109.746094 C 152.285156 109.746094 157.808594 115.269531 157.808594 122.085938 C 157.808594 127.363281 154.496094 131.867188 149.835938 133.628906 L 165.195312 148.796875 L 147.367188 148.796875 C 146.875 146.664062 144.984375 145.144531 142.792969 145.128906 L 124.21875 145.003906 L 140.050781 133.179688 "/><g style="fill:#000000;fill-opacity:1;"><g transform="translate(59.00598, 245.474645)"><path style="stroke:none" d="M 17.59375 -20.984375 C 18.03125 -20.984375 18.390625 -20.847656 18.671875 -20.578125 C 18.953125 -20.304688 19.09375 -19.960938 19.09375 -19.546875 L 19.09375 -1.46875 C 19.070312 -1.050781 18.921875 -0.703125 18.640625 -0.421875 C 18.359375 -0.140625 18 0 17.5625 0 C 17.164062 0 16.820312 -0.140625 16.53125 -0.421875 C 16.238281 -0.703125 16.09375 -1.050781 16.09375 -1.46875 L 16.09375 -9.234375 L 5.453125 -9.234375 L 5.453125 -1.46875 C 5.453125 -1.050781 5.300781 -0.703125 5 -0.421875 C 4.707031 -0.140625 4.359375 0 3.953125 0 C 3.515625 0 3.160156 -0.140625 2.890625 -0.421875 C 2.617188 -0.703125 2.484375 -1.050781 2.484375 -1.46875 L 2.484375 -19.546875 C 2.484375 -19.941406 2.625 -20.28125 2.90625 -20.5625 C 3.1875 -20.84375 3.546875 -20.984375 3.984375 -20.984375 C 4.378906 -20.984375 4.722656 -20.84375 5.015625 -20.5625 C 5.304688 -20.28125 5.453125 -19.941406 5.453125 -19.546875 L 5.453125 -11.984375 L 16.09375 -11.984375 L 16.09375 -19.546875 C 16.09375 -19.941406 16.242188 -20.28125 16.546875 -20.5625 C 16.847656 -20.84375 17.195312 -20.984375 17.59375 -20.984375 Z M 17.59375 -20.984375 "/></g></g><g style="fill:#000000;fill-opacity:1;"><g transform="translate(80.556894, 245.474645)"><path style="stroke:none" d="M 13.8125 -15.703125 C 14.226562 -15.703125 14.570312 -15.5625 14.84375 -15.28125 C 15.113281 -15 15.25 -14.660156 15.25 -14.265625 L 15.25 -6.296875 C 15.25 -4.210938 14.675781 -2.597656 13.53125 -1.453125 C 12.382812 -0.304688 10.757812 0.265625 8.65625 0.265625 C 6.582031 0.265625 4.972656 -0.304688 3.828125 -1.453125 C 2.691406 -2.597656 2.125 -4.210938 2.125 -6.296875 L 2.125 -14.265625 C 2.125 -14.660156 2.257812 -15 2.53125 -15.28125 C 2.800781 -15.5625 3.132812 -15.703125 3.53125 -15.703125 C 3.957031 -15.703125 4.300781 -15.5625 4.5625 -15.28125 C 4.832031 -15 4.96875 -14.660156 4.96875 -14.265625 L 4.96875 -6.296875 C 4.96875 -3.679688 6.195312 -2.375 8.65625 -2.375 C 9.875 -2.375 10.800781 -2.703125 11.4375 -3.359375 C 12.082031 -4.015625 12.40625 -4.992188 12.40625 -6.296875 L 12.40625 -14.265625 C 12.40625 -14.660156 12.539062 -15 12.8125 -15.28125 C 13.082031 -15.5625 13.414062 -15.703125 13.8125 -15.703125 Z M 13.8125 -15.703125 "/></g></g><g style="fill:#000000;fill-opacity:1;"><g transform="translate(97.941508, 245.474645)"><path style="stroke:none" d="M 20.140625 -15.96875 C 23.640625 -15.96875 25.390625 -13.789062 25.390625 -9.4375 L 25.390625 -1.4375 C 25.390625 -1.019531 25.257812 -0.675781 25 -0.40625 C 24.738281 -0.132812 24.394531 0 23.96875 0 C 23.550781 0 23.207031 -0.140625 22.9375 -0.421875 C 22.664062 -0.703125 22.53125 -1.039062 22.53125 -1.4375 L 22.53125 -9.40625 C 22.53125 -12.03125 21.429688 -13.34375 19.234375 -13.34375 C 18.460938 -13.34375 17.757812 -13.164062 17.125 -12.8125 C 16.5 -12.457031 16.007812 -11.976562 15.65625 -11.375 C 15.3125 -10.78125 15.140625 -10.125 15.140625 -9.40625 L 15.140625 -1.4375 C 15.140625 -1.039062 15.003906 -0.703125 14.734375 -0.421875 C 14.460938 -0.140625 14.117188 0 13.703125 0 C 13.273438 0 12.929688 -0.132812 12.671875 -0.40625 C 12.410156 -0.675781 12.28125 -1.019531 12.28125 -1.4375 L 12.28125 -9.4375 C 12.28125 -10.613281 12.03125 -11.554688 11.53125 -12.265625 C 11.03125 -12.984375 10.203125 -13.34375 9.046875 -13.34375 C 7.867188 -13.34375 6.894531 -12.96875 6.125 -12.21875 C 5.351562 -11.46875 4.96875 -10.539062 4.96875 -9.4375 L 4.96875 -1.4375 C 4.96875 -1.039062 4.832031 -0.703125 4.5625 -0.421875 C 4.300781 -0.140625 3.957031 0 3.53125 0 C 3.113281 0 2.773438 -0.132812 2.515625 -0.40625 C 2.253906 -0.675781 2.125 -1.019531 2.125 -1.4375 L 2.125 -14.265625 C 2.125 -14.660156 2.257812 -15 2.53125 -15.28125 C 2.800781 -15.5625 3.132812 -15.703125 3.53125 -15.703125 C 3.957031 -15.703125 4.300781 -15.5625 4.5625 -15.28125 C 4.832031 -15 4.96875 -14.660156 4.96875 -14.265625 L 4.96875 -13.21875 C 5.488281 -14 6.179688 -14.648438 7.046875 -15.171875 C 7.921875 -15.703125 8.867188 -15.96875 9.890625 -15.96875 C 12.367188 -15.96875 13.976562 -14.867188 14.71875 -12.671875 C 15.15625 -13.515625 15.882812 -14.273438 16.90625 -14.953125 C 17.925781 -15.628906 19.003906 -15.96875 20.140625 -15.96875 Z M 20.140625 -15.96875 "/></g></g><g style="fill:#000000;fill-opacity:1;"><g transform="translate(125.457141, 245.474645)"><path style="stroke:none" d="M 14.859375 -15.90625 C 15.285156 -15.90625 15.628906 -15.769531 15.890625 -15.5 C 16.160156 -15.238281 16.296875 -14.882812 16.296875 -14.4375 L 16.296875 -1.4375 C 16.296875 -1.039062 16.160156 -0.703125 15.890625 -0.421875 C 15.628906 -0.140625 15.285156 0 14.859375 0 C 14.441406 0 14.101562 -0.132812 13.84375 -0.40625 C 13.582031 -0.675781 13.453125 -1.019531 13.453125 -1.4375 L 13.453125 -2.21875 C 12.929688 -1.519531 12.222656 -0.925781 11.328125 -0.4375 C 10.429688 0.0507812 9.460938 0.296875 8.421875 0.296875 C 7.066406 0.296875 5.832031 -0.0507812 4.71875 -0.75 C 3.613281 -1.445312 2.742188 -2.421875 2.109375 -3.671875 C 1.484375 -4.921875 1.171875 -6.320312 1.171875 -7.875 C 1.171875 -9.4375 1.484375 -10.84375 2.109375 -12.09375 C 2.742188 -13.34375 3.609375 -14.316406 4.703125 -15.015625 C 5.804688 -15.710938 7.015625 -16.0625 8.328125 -16.0625 C 9.390625 -16.0625 10.375 -15.84375 11.28125 -15.40625 C 12.1875 -14.96875 12.910156 -14.40625 13.453125 -13.71875 L 13.453125 -14.4375 C 13.453125 -14.863281 13.582031 -15.210938 13.84375 -15.484375 C 14.101562 -15.765625 14.441406 -15.90625 14.859375 -15.90625 Z M 8.75 -2.34375 C 9.6875 -2.34375 10.519531 -2.582031 11.25 -3.0625 C 11.976562 -3.539062 12.546875 -4.195312 12.953125 -5.03125 C 13.367188 -5.875 13.578125 -6.820312 13.578125 -7.875 C 13.578125 -8.914062 13.367188 -9.851562 12.953125 -10.6875 C 12.546875 -11.53125 11.976562 -12.195312 11.25 -12.6875 C 10.519531 -13.175781 9.6875 -13.421875 8.75 -13.421875 C 7.8125 -13.421875 6.976562 -13.179688 6.25 -12.703125 C 5.519531 -12.222656 4.945312 -11.5625 4.53125 -10.71875 C 4.125 -9.882812 3.921875 -8.9375 3.921875 -7.875 C 3.921875 -6.820312 4.125 -5.875 4.53125 -5.03125 C 4.945312 -4.195312 5.519531 -3.539062 6.25 -3.0625 C 6.976562 -2.582031 7.8125 -2.34375 8.75 -2.34375 Z M 8.75 -2.34375 "/></g></g><g style="fill:#000000;fill-opacity:1;"><g transform="translate(143.860848, 245.474645)"><path style="stroke:none" d="M 10.125 -16.0625 C 13.726562 -16.0625 15.53125 -13.90625 15.53125 -9.59375 L 15.53125 -1.4375 C 15.53125 -1.039062 15.394531 -0.703125 15.125 -0.421875 C 14.851562 -0.140625 14.503906 0 14.078125 0 C 13.679688 0 13.347656 -0.140625 13.078125 -0.421875 C 12.804688 -0.703125 12.671875 -1.039062 12.671875 -1.4375 L 12.671875 -9.5625 C 12.671875 -10.738281 12.398438 -11.675781 11.859375 -12.375 C 11.328125 -13.070312 10.453125 -13.421875 9.234375 -13.421875 C 8.429688 -13.421875 7.703125 -13.242188 7.046875 -12.890625 C 6.398438 -12.546875 5.890625 -12.078125 5.515625 -11.484375 C 5.148438 -10.898438 4.96875 -10.257812 4.96875 -9.5625 L 4.96875 -1.4375 C 4.96875 -1.039062 4.832031 -0.703125 4.5625 -0.421875 C 4.300781 -0.140625 3.957031 0 3.53125 0 C 3.113281 0 2.773438 -0.132812 2.515625 -0.40625 C 2.253906 -0.675781 2.125 -1.019531 2.125 -1.4375 L 2.125 -14.265625 C 2.125 -14.660156 2.257812 -15 2.53125 -15.28125 C 2.800781 -15.5625 3.132812 -15.703125 3.53125 -15.703125 C 3.957031 -15.703125 4.300781 -15.5625 4.5625 -15.28125 C 4.832031 -15 4.96875 -14.660156 4.96875 -14.265625 L 4.96875 -13.21875 C 5.488281 -14.019531 6.210938 -14.691406 7.140625 -15.234375 C 8.078125 -15.785156 9.070312 -16.0625 10.125 -16.0625 Z M 10.125 -16.0625 "/></g></g><g style="fill:#000000;fill-opacity:1;"><g transform="translate(161.515217, 245.474645)"><path style="stroke:none" d=""/></g></g><g style="fill:#000000;fill-opacity:1;"><g transform="translate(169.817863, 245.474645)"><path style="stroke:none" d="M 18.453125 -2.390625 C 18.660156 -2.253906 18.820312 -2.082031 18.9375 -1.875 C 19.0625 -1.664062 19.125 -1.453125 19.125 -1.234375 C 19.125 -0.804688 18.988281 -0.492188 18.71875 -0.296875 C 18.445312 -0.0976562 18.117188 0 17.734375 0 C 17.359375 0 17.039062 -0.078125 16.78125 -0.234375 C 16.1875 -0.578125 15.695312 -1.128906 15.3125 -1.890625 C 14.9375 -2.648438 14.75 -3.769531 14.75 -5.25 C 14.75 -6.25 14.445312 -6.988281 13.84375 -7.46875 C 13.25 -7.945312 12.472656 -8.1875 11.515625 -8.1875 L 5.453125 -8.1875 L 5.453125 -1.4375 C 5.453125 -1.019531 5.332031 -0.675781 5.09375 -0.40625 C 4.851562 -0.132812 4.546875 0 4.171875 0 C 3.703125 0 3.300781 -0.140625 2.96875 -0.421875 C 2.644531 -0.703125 2.484375 -1.039062 2.484375 -1.4375 L 2.484375 -19.546875 C 2.484375 -19.941406 2.625 -20.28125 2.90625 -20.5625 C 3.1875 -20.84375 3.523438 -20.984375 3.921875 -20.984375 L 12.34375 -20.984375 C 13.425781 -20.984375 14.414062 -20.71875 15.3125 -20.1875 C 16.207031 -19.65625 16.925781 -18.925781 17.46875 -18 C 18.007812 -17.070312 18.28125 -16.023438 18.28125 -14.859375 C 18.28125 -13.742188 17.976562 -12.703125 17.375 -11.734375 C 16.78125 -10.765625 16.015625 -10.039062 15.078125 -9.5625 C 15.816406 -9.175781 16.398438 -8.644531 16.828125 -7.96875 C 17.253906 -7.289062 17.488281 -6.503906 17.53125 -5.609375 C 17.613281 -4.460938 17.703125 -3.6875 17.796875 -3.28125 C 17.898438 -2.875 18.117188 -2.578125 18.453125 -2.390625 Z M 12.28125 -10.671875 C 12.78125 -10.710938 13.253906 -10.910156 13.703125 -11.265625 C 14.160156 -11.628906 14.523438 -12.113281 14.796875 -12.71875 C 15.078125 -13.332031 15.21875 -14.019531 15.21875 -14.78125 C 15.21875 -15.738281 14.921875 -16.550781 14.328125 -17.21875 C 13.742188 -17.882812 13.035156 -18.21875 12.203125 -18.21875 L 5.453125 -18.21875 L 5.453125 -10.671875 Z M 12.28125 -10.671875 "/></g></g><g style="fill:#000000;fill-opacity:1;"><g transform="translate(190.199814, 245.474645)"><path style="stroke:none" d="M 15.90625 -8.453125 C 15.894531 -8.085938 15.75 -7.78125 15.46875 -7.53125 C 15.1875 -7.28125 14.851562 -7.15625 14.46875 -7.15625 L 3.921875 -7.15625 C 4.066406 -5.695312 4.625 -4.53125 5.59375 -3.65625 C 6.5625 -2.78125 7.742188 -2.34375 9.140625 -2.34375 C 10.097656 -2.34375 10.875 -2.476562 11.46875 -2.75 C 12.070312 -3.03125 12.601562 -3.394531 13.0625 -3.84375 C 13.363281 -4.019531 13.65625 -4.109375 13.9375 -4.109375 C 14.269531 -4.109375 14.550781 -3.988281 14.78125 -3.75 C 15.019531 -3.507812 15.140625 -3.226562 15.140625 -2.90625 C 15.140625 -2.488281 14.9375 -2.109375 14.53125 -1.765625 C 13.957031 -1.191406 13.1875 -0.703125 12.21875 -0.296875 C 11.257812 0.0976562 10.285156 0.296875 9.296875 0.296875 C 7.671875 0.296875 6.242188 -0.0390625 5.015625 -0.71875 C 3.785156 -1.394531 2.835938 -2.34375 2.171875 -3.5625 C 1.503906 -4.78125 1.171875 -6.160156 1.171875 -7.703125 C 1.171875 -9.378906 1.515625 -10.851562 2.203125 -12.125 C 2.890625 -13.394531 3.796875 -14.367188 4.921875 -15.046875 C 6.054688 -15.722656 7.273438 -16.0625 8.578125 -16.0625 C 9.847656 -16.0625 11.039062 -15.726562 12.15625 -15.0625 C 13.28125 -14.40625 14.179688 -13.5 14.859375 -12.34375 C 15.546875 -11.1875 15.894531 -9.890625 15.90625 -8.453125 Z M 8.578125 -13.421875 C 7.453125 -13.421875 6.476562 -13.101562 5.65625 -12.46875 C 4.84375 -11.84375 4.304688 -10.875 4.046875 -9.5625 L 12.890625 -9.5625 L 12.890625 -9.796875 C 12.785156 -10.859375 12.304688 -11.726562 11.453125 -12.40625 C 10.609375 -13.082031 9.648438 -13.421875 8.578125 -13.421875 Z M 8.578125 -13.421875 "/></g></g><g style="fill:#000000;fill-opacity:1;"><g transform="translate(207.284687, 245.474645)"><path style="stroke:none" d="M 1.234375 -2.453125 C 1.046875 -2.734375 0.953125 -3.003906 0.953125 -3.265625 C 0.953125 -3.660156 1.164062 -4 1.59375 -4.28125 C 1.789062 -4.425781 2.019531 -4.5 2.28125 -4.5 C 2.632812 -4.5 2.960938 -4.347656 3.265625 -4.046875 C 3.867188 -3.367188 4.515625 -2.859375 5.203125 -2.515625 C 5.890625 -2.179688 6.710938 -2.015625 7.671875 -2.015625 C 8.429688 -2.023438 9.097656 -2.195312 9.671875 -2.53125 C 10.253906 -2.863281 10.546875 -3.398438 10.546875 -4.140625 C 10.546875 -4.816406 10.25 -5.332031 9.65625 -5.6875 C 9.070312 -6.050781 8.210938 -6.382812 7.078125 -6.6875 C 5.953125 -6.976562 5.019531 -7.289062 4.28125 -7.625 C 3.539062 -7.957031 2.914062 -8.4375 2.40625 -9.0625 C 1.894531 -9.695312 1.640625 -10.519531 1.640625 -11.53125 C 1.640625 -12.4375 1.894531 -13.226562 2.40625 -13.90625 C 2.914062 -14.582031 3.59375 -15.109375 4.4375 -15.484375 C 5.289062 -15.867188 6.21875 -16.0625 7.21875 -16.0625 C 8.175781 -16.0625 9.128906 -15.878906 10.078125 -15.515625 C 11.035156 -15.160156 11.8125 -14.613281 12.40625 -13.875 C 12.644531 -13.59375 12.765625 -13.300781 12.765625 -13 C 12.765625 -12.6875 12.601562 -12.378906 12.28125 -12.078125 C 12.082031 -11.898438 11.832031 -11.8125 11.53125 -11.8125 C 11.175781 -11.8125 10.890625 -11.929688 10.671875 -12.171875 C 10.253906 -12.648438 9.738281 -13.019531 9.125 -13.28125 C 8.519531 -13.539062 7.847656 -13.671875 7.109375 -13.671875 C 6.347656 -13.671875 5.703125 -13.515625 5.171875 -13.203125 C 4.640625 -12.890625 4.375 -12.363281 4.375 -11.625 C 4.394531 -10.925781 4.695312 -10.40625 5.28125 -10.0625 C 5.875 -9.726562 6.78125 -9.398438 8 -9.078125 C 9.0625 -8.796875 9.941406 -8.492188 10.640625 -8.171875 C 11.335938 -7.859375 11.925781 -7.382812 12.40625 -6.75 C 12.882812 -6.125 13.125 -5.300781 13.125 -4.28125 C 13.125 -3.34375 12.851562 -2.53125 12.3125 -1.84375 C 11.78125 -1.15625 11.078125 -0.625 10.203125 -0.25 C 9.335938 0.113281 8.414062 0.296875 7.4375 0.296875 C 6.175781 0.296875 5.007812 0.078125 3.9375 -0.359375 C 2.875 -0.796875 1.972656 -1.492188 1.234375 -2.453125 Z M 1.234375 -2.453125 "/></g></g><g style="fill:#000000;fill-opacity:1;"><g transform="translate(221.582035, 245.474645)"><path style="stroke:none" d="M 17 -7.859375 C 17 -6.296875 16.644531 -4.894531 15.9375 -3.65625 C 15.238281 -2.414062 14.285156 -1.445312 13.078125 -0.75 C 11.867188 -0.0507812 10.535156 0.296875 9.078125 0.296875 C 7.617188 0.296875 6.285156 -0.0507812 5.078125 -0.75 C 3.867188 -1.445312 2.914062 -2.414062 2.21875 -3.65625 C 1.519531 -4.894531 1.171875 -6.296875 1.171875 -7.859375 C 1.171875 -9.410156 1.519531 -10.816406 2.21875 -12.078125 C 2.914062 -13.335938 3.867188 -14.316406 5.078125 -15.015625 C 6.285156 -15.710938 7.617188 -16.0625 9.078125 -16.0625 C 10.535156 -16.0625 11.867188 -15.710938 13.078125 -15.015625 C 14.285156 -14.316406 15.238281 -13.335938 15.9375 -12.078125 C 16.644531 -10.816406 17 -9.410156 17 -7.859375 Z M 14.140625 -7.859375 C 14.140625 -8.929688 13.914062 -9.890625 13.46875 -10.734375 C 13.019531 -11.585938 12.410156 -12.25 11.640625 -12.71875 C 10.867188 -13.1875 10.015625 -13.421875 9.078125 -13.421875 C 8.140625 -13.421875 7.285156 -13.1875 6.515625 -12.71875 C 5.742188 -12.25 5.132812 -11.585938 4.6875 -10.734375 C 4.238281 -9.890625 4.015625 -8.929688 4.015625 -7.859375 C 4.015625 -6.796875 4.238281 -5.84375 4.6875 -5 C 5.132812 -4.164062 5.742188 -3.515625 6.515625 -3.046875 C 7.285156 -2.578125 8.140625 -2.34375 9.078125 -2.34375 C 10.015625 -2.34375 10.867188 -2.578125 11.640625 -3.046875 C 12.410156 -3.515625 13.019531 -4.164062 13.46875 -5 C 13.914062 -5.84375 14.140625 -6.796875 14.140625 -7.859375 Z M 14.140625 -7.859375 "/></g></g><g style="fill:#000000;fill-opacity:1;"><g transform="translate(239.745958, 245.474645)"><path style="stroke:none" d="M 13.8125 -15.703125 C 14.226562 -15.703125 14.570312 -15.5625 14.84375 -15.28125 C 15.113281 -15 15.25 -14.660156 15.25 -14.265625 L 15.25 -6.296875 C 15.25 -4.210938 14.675781 -2.597656 13.53125 -1.453125 C 12.382812 -0.304688 10.757812 0.265625 8.65625 0.265625 C 6.582031 0.265625 4.972656 -0.304688 3.828125 -1.453125 C 2.691406 -2.597656 2.125 -4.210938 2.125 -6.296875 L 2.125 -14.265625 C 2.125 -14.660156 2.257812 -15 2.53125 -15.28125 C 2.800781 -15.5625 3.132812 -15.703125 3.53125 -15.703125 C 3.957031 -15.703125 4.300781 -15.5625 4.5625 -15.28125 C 4.832031 -15 4.96875 -14.660156 4.96875 -14.265625 L 4.96875 -6.296875 C 4.96875 -3.679688 6.195312 -2.375 8.65625 -2.375 C 9.875 -2.375 10.800781 -2.703125 11.4375 -3.359375 C 12.082031 -4.015625 12.40625 -4.992188 12.40625 -6.296875 L 12.40625 -14.265625 C 12.40625 -14.660156 12.539062 -15 12.8125 -15.28125 C 13.082031 -15.5625 13.414062 -15.703125 13.8125 -15.703125 Z M 13.8125 -15.703125 "/></g></g><g style="fill:#000000;fill-opacity:1;"><g transform="translate(257.130572, 245.474645)"><path style="stroke:none" d="M 9.953125 -16.0625 C 10.472656 -16.0625 10.921875 -15.925781 11.296875 -15.65625 C 11.679688 -15.382812 11.875 -15.050781 11.875 -14.65625 C 11.875 -14.175781 11.75 -13.8125 11.5 -13.5625 C 11.25 -13.3125 10.941406 -13.1875 10.578125 -13.1875 C 10.398438 -13.1875 10.128906 -13.242188 9.765625 -13.359375 C 9.347656 -13.503906 9.019531 -13.578125 8.78125 -13.578125 C 8.164062 -13.578125 7.5625 -13.359375 6.96875 -12.921875 C 6.375 -12.492188 5.890625 -11.90625 5.515625 -11.15625 C 5.148438 -10.414062 4.96875 -9.582031 4.96875 -8.65625 L 4.96875 -1.4375 C 4.96875 -1.039062 4.832031 -0.703125 4.5625 -0.421875 C 4.300781 -0.140625 3.957031 0 3.53125 0 C 3.113281 0 2.773438 -0.132812 2.515625 -0.40625 C 2.253906 -0.675781 2.125 -1.019531 2.125 -1.4375 L 2.125 -14.265625 C 2.125 -14.660156 2.257812 -15 2.53125 -15.28125 C 2.800781 -15.5625 3.132812 -15.703125 3.53125 -15.703125 C 3.957031 -15.703125 4.300781 -15.5625 4.5625 -15.28125 C 4.832031 -15 4.96875 -14.660156 4.96875 -14.265625 L 4.96875 -12.734375 C 5.414062 -13.710938 6.078125 -14.503906 6.953125 -15.109375 C 7.828125 -15.722656 8.828125 -16.039062 9.953125 -16.0625 Z M 9.953125 -16.0625 "/></g></g><g style="fill:#000000;fill-opacity:1;"><g transform="translate(269.509619, 245.474645)"><path style="stroke:none" d="M 8.953125 -16.0625 C 10.535156 -16.0625 11.847656 -15.8125 12.890625 -15.3125 C 13.941406 -14.8125 14.46875 -14.171875 14.46875 -13.390625 C 14.46875 -13.054688 14.359375 -12.753906 14.140625 -12.484375 C 13.921875 -12.210938 13.644531 -12.078125 13.3125 -12.078125 C 13.050781 -12.078125 12.84375 -12.113281 12.6875 -12.1875 C 12.539062 -12.269531 12.335938 -12.40625 12.078125 -12.59375 C 11.953125 -12.707031 11.765625 -12.84375 11.515625 -13 C 11.265625 -13.125 10.921875 -13.222656 10.484375 -13.296875 C 10.046875 -13.378906 9.648438 -13.421875 9.296875 -13.421875 C 8.253906 -13.421875 7.332031 -13.179688 6.53125 -12.703125 C 5.726562 -12.222656 5.109375 -11.554688 4.671875 -10.703125 C 4.234375 -9.859375 4.015625 -8.914062 4.015625 -7.875 C 4.015625 -6.820312 4.226562 -5.875 4.65625 -5.03125 C 5.082031 -4.195312 5.6875 -3.539062 6.46875 -3.0625 C 7.25 -2.582031 8.140625 -2.34375 9.140625 -2.34375 C 10.179688 -2.34375 11.019531 -2.5 11.65625 -2.8125 C 11.800781 -2.894531 11.992188 -3.023438 12.234375 -3.203125 C 12.429688 -3.367188 12.601562 -3.488281 12.75 -3.5625 C 12.894531 -3.644531 13.082031 -3.6875 13.3125 -3.6875 C 13.707031 -3.6875 14.019531 -3.5625 14.25 -3.3125 C 14.476562 -3.0625 14.59375 -2.738281 14.59375 -2.34375 C 14.59375 -1.914062 14.328125 -1.5 13.796875 -1.09375 C 13.265625 -0.6875 12.554688 -0.351562 11.671875 -0.09375 C 10.785156 0.164062 9.832031 0.296875 8.8125 0.296875 C 7.289062 0.296875 5.953125 -0.0546875 4.796875 -0.765625 C 3.640625 -1.472656 2.742188 -2.453125 2.109375 -3.703125 C 1.484375 -4.953125 1.171875 -6.34375 1.171875 -7.875 C 1.171875 -9.414062 1.5 -10.8125 2.15625 -12.0625 C 2.8125 -13.3125 3.726562 -14.289062 4.90625 -15 C 6.09375 -15.707031 7.441406 -16.0625 8.953125 -16.0625 Z M 8.953125 -16.0625 "/></g></g><g style="fill:#000000;fill-opacity:1;"><g transform="translate(284.915974, 245.474645)"><path style="stroke:none" d="M 15.90625 -8.453125 C 15.894531 -8.085938 15.75 -7.78125 15.46875 -7.53125 C 15.1875 -7.28125 14.851562 -7.15625 14.46875 -7.15625 L 3.921875 -7.15625 C 4.066406 -5.695312 4.625 -4.53125 5.59375 -3.65625 C 6.5625 -2.78125 7.742188 -2.34375 9.140625 -2.34375 C 10.097656 -2.34375 10.875 -2.476562 11.46875 -2.75 C 12.070312 -3.03125 12.601562 -3.394531 13.0625 -3.84375 C 13.363281 -4.019531 13.65625 -4.109375 13.9375 -4.109375 C 14.269531 -4.109375 14.550781 -3.988281 14.78125 -3.75 C 15.019531 -3.507812 15.140625 -3.226562 15.140625 -2.90625 C 15.140625 -2.488281 14.9375 -2.109375 14.53125 -1.765625 C 13.957031 -1.191406 13.1875 -0.703125 12.21875 -0.296875 C 11.257812 0.0976562 10.285156 0.296875 9.296875 0.296875 C 7.671875 0.296875 6.242188 -0.0390625 5.015625 -0.71875 C 3.785156 -1.394531 2.835938 -2.34375 2.171875 -3.5625 C 1.503906 -4.78125 1.171875 -6.160156 1.171875 -7.703125 C 1.171875 -9.378906 1.515625 -10.851562 2.203125 -12.125 C 2.890625 -13.394531 3.796875 -14.367188 4.921875 -15.046875 C 6.054688 -15.722656 7.273438 -16.0625 8.578125 -16.0625 C 9.847656 -16.0625 11.039062 -15.726562 12.15625 -15.0625 C 13.28125 -14.40625 14.179688 -13.5 14.859375 -12.34375 C 15.546875 -11.1875 15.894531 -9.890625 15.90625 -8.453125 Z M 8.578125 -13.421875 C 7.453125 -13.421875 6.476562 -13.101562 5.65625 -12.46875 C 4.84375 -11.84375 4.304688 -10.875 4.046875 -9.5625 L 12.890625 -9.5625 L 12.890625 -9.796875 C 12.785156 -10.859375 12.304688 -11.726562 11.453125 -12.40625 C 10.609375 -13.082031 9.648438 -13.421875 8.578125 -13.421875 Z M 8.578125 -13.421875 "/></g></g><g style="fill:#000000;fill-opacity:1;"><g transform="translate(302.000847, 245.474645)"><path style="stroke:none" d="M 1.234375 -2.453125 C 1.046875 -2.734375 0.953125 -3.003906 0.953125 -3.265625 C 0.953125 -3.660156 1.164062 -4 1.59375 -4.28125 C 1.789062 -4.425781 2.019531 -4.5 2.28125 -4.5 C 2.632812 -4.5 2.960938 -4.347656 3.265625 -4.046875 C 3.867188 -3.367188 4.515625 -2.859375 5.203125 -2.515625 C 5.890625 -2.179688 6.710938 -2.015625 7.671875 -2.015625 C 8.429688 -2.023438 9.097656 -2.195312 9.671875 -2.53125 C 10.253906 -2.863281 10.546875 -3.398438 10.546875 -4.140625 C 10.546875 -4.816406 10.25 -5.332031 9.65625 -5.6875 C 9.070312 -6.050781 8.210938 -6.382812 7.078125 -6.6875 C 5.953125 -6.976562 5.019531 -7.289062 4.28125 -7.625 C 3.539062 -7.957031 2.914062 -8.4375 2.40625 -9.0625 C 1.894531 -9.695312 1.640625 -10.519531 1.640625 -11.53125 C 1.640625 -12.4375 1.894531 -13.226562 2.40625 -13.90625 C 2.914062 -14.582031 3.59375 -15.109375 4.4375 -15.484375 C 5.289062 -15.867188 6.21875 -16.0625 7.21875 -16.0625 C 8.175781 -16.0625 9.128906 -15.878906 10.078125 -15.515625 C 11.035156 -15.160156 11.8125 -14.613281 12.40625 -13.875 C 12.644531 -13.59375 12.765625 -13.300781 12.765625 -13 C 12.765625 -12.6875 12.601562 -12.378906 12.28125 -12.078125 C 12.082031 -11.898438 11.832031 -11.8125 11.53125 -11.8125 C 11.175781 -11.8125 10.890625 -11.929688 10.671875 -12.171875 C 10.253906 -12.648438 9.738281 -13.019531 9.125 -13.28125 C 8.519531 -13.539062 7.847656 -13.671875 7.109375 -13.671875 C 6.347656 -13.671875 5.703125 -13.515625 5.171875 -13.203125 C 4.640625 -12.890625 4.375 -12.363281 4.375 -11.625 C 4.394531 -10.925781 4.695312 -10.40625 5.28125 -10.0625 C 5.875 -9.726562 6.78125 -9.398438 8 -9.078125 C 9.0625 -8.796875 9.941406 -8.492188 10.640625 -8.171875 C 11.335938 -7.859375 11.925781 -7.382812 12.40625 -6.75 C 12.882812 -6.125 13.125 -5.300781 13.125 -4.28125 C 13.125 -3.34375 12.851562 -2.53125 12.3125 -1.84375 C 11.78125 -1.15625 11.078125 -0.625 10.203125 -0.25 C 9.335938 0.113281 8.414062 0.296875 7.4375 0.296875 C 6.175781 0.296875 5.007812 0.078125 3.9375 -0.359375 C 2.875 -0.796875 1.972656 -1.492188 1.234375 -2.453125 Z M 1.234375 -2.453125 "/></g></g><g style="fill:#ea0e68;fill-opacity:1;"><g transform="translate(87.369852, 273.28718)"><path style="stroke:none" d="M 11.0625 -11.21875 C 11.269531 -11.207031 11.445312 -11.128906 11.59375 -10.984375 C 11.75 -10.835938 11.828125 -10.660156 11.828125 -10.453125 L 11.828125 -0.765625 C 11.828125 -0.554688 11.753906 -0.375 11.609375 -0.21875 C 11.460938 -0.0703125 11.273438 0 11.046875 0 C 10.804688 0 10.609375 -0.0703125 10.453125 -0.21875 C 10.304688 -0.363281 10.234375 -0.546875 10.234375 -0.765625 L 10.234375 -8.171875 L 7.140625 -3.46875 C 7.066406 -3.375 6.972656 -3.296875 6.859375 -3.234375 C 6.742188 -3.171875 6.628906 -3.144531 6.515625 -3.15625 C 6.410156 -3.144531 6.300781 -3.171875 6.1875 -3.234375 C 6.070312 -3.296875 5.976562 -3.375 5.90625 -3.46875 L 2.78125 -8.3125 L 2.78125 -0.765625 C 2.78125 -0.546875 2.710938 -0.363281 2.578125 -0.21875 C 2.453125 -0.0703125 2.273438 0 2.046875 0 C 1.835938 0 1.664062 -0.0703125 1.53125 -0.21875 C 1.394531 -0.363281 1.328125 -0.546875 1.328125 -0.765625 L 1.328125 -10.453125 C 1.328125 -10.648438 1.398438 -10.828125 1.546875 -10.984375 C 1.703125 -11.140625 1.890625 -11.21875 2.109375 -11.21875 C 2.234375 -11.21875 2.359375 -11.1875 2.484375 -11.125 C 2.609375 -11.0625 2.707031 -10.972656 2.78125 -10.859375 L 6.578125 -5.125 L 10.421875 -10.859375 C 10.585938 -11.097656 10.800781 -11.21875 11.0625 -11.21875 Z M 11.0625 -11.21875 "/></g></g><g style="fill:#ea0e68;fill-opacity:1;"><g transform="translate(102.182683, 273.28718)"><path style="stroke:none" d="M 9.9375 -0.984375 C 9.96875 -0.890625 9.984375 -0.789062 9.984375 -0.6875 C 9.984375 -0.476562 9.910156 -0.300781 9.765625 -0.15625 C 9.617188 -0.0195312 9.453125 0.046875 9.265625 0.046875 C 9.117188 0.046875 8.984375 0.00390625 8.859375 -0.078125 C 8.734375 -0.171875 8.632812 -0.300781 8.5625 -0.46875 L 7.5625 -2.8125 L 2.625 -2.8125 L 1.640625 -0.453125 C 1.585938 -0.285156 1.5 -0.160156 1.375 -0.078125 C 1.257812 0.00390625 1.125 0.046875 0.96875 0.046875 C 0.75 0.046875 0.578125 -0.0078125 0.453125 -0.125 C 0.335938 -0.238281 0.28125 -0.398438 0.28125 -0.609375 C 0.28125 -0.648438 0.289062 -0.734375 0.3125 -0.859375 L 4.40625 -10.75 C 4.476562 -10.925781 4.578125 -11.054688 4.703125 -11.140625 C 4.835938 -11.234375 4.992188 -11.269531 5.171875 -11.25 C 5.328125 -11.25 5.46875 -11.203125 5.59375 -11.109375 C 5.726562 -11.023438 5.820312 -10.90625 5.875 -10.75 Z M 3.234375 -4.265625 L 6.953125 -4.265625 L 5.09375 -8.75 Z M 3.234375 -4.265625 "/></g></g><g style="fill:#ea0e68;fill-opacity:1;"><g transform="translate(114.116215, 273.28718)"><path style="stroke:none" d="M 9.703125 -11.203125 C 9.898438 -11.203125 10.0625 -11.132812 10.1875 -11 C 10.320312 -10.863281 10.390625 -10.695312 10.390625 -10.5 L 10.390625 -0.78125 C 10.390625 -0.5625 10.316406 -0.375 10.171875 -0.21875 C 10.023438 -0.0703125 9.835938 0 9.609375 0 C 9.492188 0 9.378906 -0.015625 9.265625 -0.046875 C 9.160156 -0.0859375 9.078125 -0.144531 9.015625 -0.21875 L 2.71875 -8.421875 L 2.71875 -0.703125 C 2.71875 -0.503906 2.648438 -0.335938 2.515625 -0.203125 C 2.378906 -0.0664062 2.210938 0 2.015625 0 C 1.816406 0 1.648438 -0.0664062 1.515625 -0.203125 C 1.390625 -0.335938 1.328125 -0.503906 1.328125 -0.703125 L 1.328125 -10.4375 C 1.328125 -10.65625 1.398438 -10.835938 1.546875 -10.984375 C 1.691406 -11.128906 1.867188 -11.203125 2.078125 -11.203125 C 2.203125 -11.203125 2.320312 -11.175781 2.4375 -11.125 C 2.5625 -11.082031 2.65625 -11.015625 2.71875 -10.921875 L 8.984375 -2.71875 L 8.984375 -10.5 C 8.984375 -10.695312 9.050781 -10.863281 9.1875 -11 C 9.320312 -11.132812 9.492188 -11.203125 9.703125 -11.203125 Z M 9.703125 -11.203125 "/></g></g><g style="fill:#ea0e68;fill-opacity:1;"><g transform="translate(127.48939, 273.28718)"><path style="stroke:none" d="M 9.9375 -0.984375 C 9.96875 -0.890625 9.984375 -0.789062 9.984375 -0.6875 C 9.984375 -0.476562 9.910156 -0.300781 9.765625 -0.15625 C 9.617188 -0.0195312 9.453125 0.046875 9.265625 0.046875 C 9.117188 0.046875 8.984375 0.00390625 8.859375 -0.078125 C 8.734375 -0.171875 8.632812 -0.300781 8.5625 -0.46875 L 7.5625 -2.8125 L 2.625 -2.8125 L 1.640625 -0.453125 C 1.585938 -0.285156 1.5 -0.160156 1.375 -0.078125 C 1.257812 0.00390625 1.125 0.046875 0.96875 0.046875 C 0.75 0.046875 0.578125 -0.0078125 0.453125 -0.125 C 0.335938 -0.238281 0.28125 -0.398438 0.28125 -0.609375 C 0.28125 -0.648438 0.289062 -0.734375 0.3125 -0.859375 L 4.40625 -10.75 C 4.476562 -10.925781 4.578125 -11.054688 4.703125 -11.140625 C 4.835938 -11.234375 4.992188 -11.269531 5.171875 -11.25 C 5.328125 -11.25 5.46875 -11.203125 5.59375 -11.109375 C 5.726562 -11.023438 5.820312 -10.90625 5.875 -10.75 Z M 3.234375 -4.265625 L 6.953125 -4.265625 L 5.09375 -8.75 Z M 3.234375 -4.265625 "/></g></g><g style="fill:#ea0e68;fill-opacity:1;"><g transform="translate(139.422922, 273.28718)"><path style="stroke:none" d="M 9.546875 -5.890625 C 9.765625 -5.890625 9.941406 -5.8125 10.078125 -5.65625 C 10.222656 -5.507812 10.296875 -5.332031 10.296875 -5.125 L 10.296875 -1.515625 C 10.296875 -1.234375 10.171875 -1.007812 9.921875 -0.84375 C 9.429688 -0.53125 8.890625 -0.285156 8.296875 -0.109375 C 7.710938 0.0664062 7.113281 0.15625 6.5 0.15625 C 5.425781 0.15625 4.441406 -0.0976562 3.546875 -0.609375 C 2.660156 -1.117188 1.960938 -1.8125 1.453125 -2.6875 C 0.941406 -3.570312 0.6875 -4.539062 0.6875 -5.59375 C 0.6875 -6.65625 0.941406 -7.625 1.453125 -8.5 C 1.960938 -9.382812 2.660156 -10.082031 3.546875 -10.59375 C 4.441406 -11.101562 5.425781 -11.359375 6.5 -11.359375 C 7.03125 -11.359375 7.539062 -11.300781 8.03125 -11.1875 C 8.53125 -11.070312 8.976562 -10.894531 9.375 -10.65625 C 9.5 -10.582031 9.59375 -10.488281 9.65625 -10.375 C 9.726562 -10.269531 9.765625 -10.15625 9.765625 -10.03125 C 9.765625 -9.820312 9.691406 -9.640625 9.546875 -9.484375 C 9.398438 -9.328125 9.226562 -9.25 9.03125 -9.25 C 8.863281 -9.25 8.722656 -9.285156 8.609375 -9.359375 C 7.910156 -9.679688 7.207031 -9.84375 6.5 -9.84375 C 5.726562 -9.84375 5.023438 -9.65625 4.390625 -9.28125 C 3.753906 -8.90625 3.253906 -8.390625 2.890625 -7.734375 C 2.523438 -7.085938 2.34375 -6.375 2.34375 -5.59375 C 2.34375 -4.820312 2.523438 -4.113281 2.890625 -3.46875 C 3.253906 -2.820312 3.753906 -2.304688 4.390625 -1.921875 C 5.023438 -1.546875 5.726562 -1.359375 6.5 -1.359375 C 6.863281 -1.359375 7.242188 -1.398438 7.640625 -1.484375 C 8.035156 -1.566406 8.378906 -1.679688 8.671875 -1.828125 L 8.671875 -4.375 L 6.734375 -4.375 C 6.523438 -4.375 6.34375 -4.441406 6.1875 -4.578125 C 6.039062 -4.722656 5.96875 -4.90625 5.96875 -5.125 C 5.96875 -5.34375 6.039062 -5.523438 6.1875 -5.671875 C 6.34375 -5.816406 6.523438 -5.890625 6.734375 -5.890625 Z M 9.546875 -5.890625 "/></g></g><g style="fill:#ea0e68;fill-opacity:1;"><g transform="translate(152.204244, 273.28718)"><path style="stroke:none" d="M 7.65625 -1.46875 C 7.882812 -1.46875 8.070312 -1.394531 8.21875 -1.25 C 8.363281 -1.101562 8.4375 -0.925781 8.4375 -0.71875 C 8.4375 -0.507812 8.363281 -0.335938 8.21875 -0.203125 C 8.070312 -0.0664062 7.882812 0 7.65625 0 L 2.09375 0 C 1.882812 0 1.703125 -0.0703125 1.546875 -0.21875 C 1.398438 -0.375 1.328125 -0.554688 1.328125 -0.765625 L 1.328125 -10.4375 C 1.328125 -10.644531 1.398438 -10.820312 1.546875 -10.96875 C 1.703125 -11.125 1.882812 -11.203125 2.09375 -11.203125 L 7.65625 -11.203125 C 7.882812 -11.203125 8.070312 -11.128906 8.21875 -10.984375 C 8.363281 -10.847656 8.4375 -10.671875 8.4375 -10.453125 C 8.4375 -10.234375 8.363281 -10.054688 8.21875 -9.921875 C 8.070312 -9.796875 7.882812 -9.734375 7.65625 -9.734375 L 2.90625 -9.734375 L 2.90625 -6.46875 L 6.9375 -6.46875 C 7.164062 -6.46875 7.351562 -6.394531 7.5 -6.25 C 7.644531 -6.113281 7.71875 -5.941406 7.71875 -5.734375 C 7.71875 -5.503906 7.644531 -5.328125 7.5 -5.203125 C 7.351562 -5.078125 7.164062 -5.015625 6.9375 -5.015625 L 2.90625 -5.015625 L 2.90625 -1.46875 Z M 7.65625 -1.46875 "/></g></g><g style="fill:#ea0e68;fill-opacity:1;"><g transform="translate(162.986042, 273.28718)"><path style="stroke:none" d="M 11.0625 -11.21875 C 11.269531 -11.207031 11.445312 -11.128906 11.59375 -10.984375 C 11.75 -10.835938 11.828125 -10.660156 11.828125 -10.453125 L 11.828125 -0.765625 C 11.828125 -0.554688 11.753906 -0.375 11.609375 -0.21875 C 11.460938 -0.0703125 11.273438 0 11.046875 0 C 10.804688 0 10.609375 -0.0703125 10.453125 -0.21875 C 10.304688 -0.363281 10.234375 -0.546875 10.234375 -0.765625 L 10.234375 -8.171875 L 7.140625 -3.46875 C 7.066406 -3.375 6.972656 -3.296875 6.859375 -3.234375 C 6.742188 -3.171875 6.628906 -3.144531 6.515625 -3.15625 C 6.410156 -3.144531 6.300781 -3.171875 6.1875 -3.234375 C 6.070312 -3.296875 5.976562 -3.375 5.90625 -3.46875 L 2.78125 -8.3125 L 2.78125 -0.765625 C 2.78125 -0.546875 2.710938 -0.363281 2.578125 -0.21875 C 2.453125 -0.0703125 2.273438 0 2.046875 0 C 1.835938 0 1.664062 -0.0703125 1.53125 -0.21875 C 1.394531 -0.363281 1.328125 -0.546875 1.328125 -0.765625 L 1.328125 -10.453125 C 1.328125 -10.648438 1.398438 -10.828125 1.546875 -10.984375 C 1.703125 -11.140625 1.890625 -11.21875 2.109375 -11.21875 C 2.234375 -11.21875 2.359375 -11.1875 2.484375 -11.125 C 2.609375 -11.0625 2.707031 -10.972656 2.78125 -10.859375 L 6.578125 -5.125 L 10.421875 -10.859375 C 10.585938 -11.097656 10.800781 -11.21875 11.0625 -11.21875 Z M 11.0625 -11.21875 "/></g></g><g style="fill:#ea0e68;fill-opacity:1;"><g transform="translate(177.798874, 273.28718)"><path style="stroke:none" d="M 7.65625 -1.46875 C 7.882812 -1.46875 8.070312 -1.394531 8.21875 -1.25 C 8.363281 -1.101562 8.4375 -0.925781 8.4375 -0.71875 C 8.4375 -0.507812 8.363281 -0.335938 8.21875 -0.203125 C 8.070312 -0.0664062 7.882812 0 7.65625 0 L 2.09375 0 C 1.882812 0 1.703125 -0.0703125 1.546875 -0.21875 C 1.398438 -0.375 1.328125 -0.554688 1.328125 -0.765625 L 1.328125 -10.4375 C 1.328125 -10.644531 1.398438 -10.820312 1.546875 -10.96875 C 1.703125 -11.125 1.882812 -11.203125 2.09375 -11.203125 L 7.65625 -11.203125 C 7.882812 -11.203125 8.070312 -11.128906 8.21875 -10.984375 C 8.363281 -10.847656 8.4375 -10.671875 8.4375 -10.453125 C 8.4375 -10.234375 8.363281 -10.054688 8.21875 -9.921875 C 8.070312 -9.796875 7.882812 -9.734375 7.65625 -9.734375 L 2.90625 -9.734375 L 2.90625 -6.46875 L 6.9375 -6.46875 C 7.164062 -6.46875 7.351562 -6.394531 7.5 -6.25 C 7.644531 -6.113281 7.71875 -5.941406 7.71875 -5.734375 C 7.71875 -5.503906 7.644531 -5.328125 7.5 -5.203125 C 7.351562 -5.078125 7.164062 -5.015625 6.9375 -5.015625 L 2.90625 -5.015625 L 2.90625 -1.46875 Z M 7.65625 -1.46875 "/></g></g><g style="fill:#ea0e68;fill-opacity:1;"><g transform="translate(188.580672, 273.28718)"><path style="stroke:none" d="M 9.703125 -11.203125 C 9.898438 -11.203125 10.0625 -11.132812 10.1875 -11 C 10.320312 -10.863281 10.390625 -10.695312 10.390625 -10.5 L 10.390625 -0.78125 C 10.390625 -0.5625 10.316406 -0.375 10.171875 -0.21875 C 10.023438 -0.0703125 9.835938 0 9.609375 0 C 9.492188 0 9.378906 -0.015625 9.265625 -0.046875 C 9.160156 -0.0859375 9.078125 -0.144531 9.015625 -0.21875 L 2.71875 -8.421875 L 2.71875 -0.703125 C 2.71875 -0.503906 2.648438 -0.335938 2.515625 -0.203125 C 2.378906 -0.0664062 2.210938 0 2.015625 0 C 1.816406 0 1.648438 -0.0664062 1.515625 -0.203125 C 1.390625 -0.335938 1.328125 -0.503906 1.328125 -0.703125 L 1.328125 -10.4375 C 1.328125 -10.65625 1.398438 -10.835938 1.546875 -10.984375 C 1.691406 -11.128906 1.867188 -11.203125 2.078125 -11.203125 C 2.203125 -11.203125 2.320312 -11.175781 2.4375 -11.125 C 2.5625 -11.082031 2.65625 -11.015625 2.71875 -10.921875 L 8.984375 -2.71875 L 8.984375 -10.5 C 8.984375 -10.695312 9.050781 -10.863281 9.1875 -11 C 9.320312 -11.132812 9.492188 -11.203125 9.703125 -11.203125 Z M 9.703125 -11.203125 "/></g></g><g style="fill:#ea0e68;fill-opacity:1;"><g transform="translate(201.953848, 273.28718)"><path style="stroke:none" d="M 8.59375 -11.203125 C 8.8125 -11.203125 8.992188 -11.132812 9.140625 -11 C 9.285156 -10.863281 9.359375 -10.6875 9.359375 -10.46875 C 9.359375 -10.238281 9.285156 -10.0625 9.140625 -9.9375 C 8.992188 -9.8125 8.8125 -9.75 8.59375 -9.75 L 5.75 -9.75 L 5.75 -0.765625 C 5.75 -0.554688 5.671875 -0.375 5.515625 -0.21875 C 5.359375 -0.0703125 5.160156 0 4.921875 0 C 4.691406 0 4.5 -0.0703125 4.34375 -0.21875 C 4.1875 -0.375 4.109375 -0.554688 4.109375 -0.765625 L 4.109375 -9.75 L 1.28125 -9.75 C 1.050781 -9.75 0.863281 -9.8125 0.71875 -9.9375 C 0.582031 -10.070312 0.515625 -10.253906 0.515625 -10.484375 C 0.515625 -10.691406 0.582031 -10.863281 0.71875 -11 C 0.863281 -11.132812 1.050781 -11.203125 1.28125 -11.203125 Z M 8.59375 -11.203125 "/></g></g><g style="fill:#ea0e68;fill-opacity:1;"><g transform="translate(213.487466, 273.28718)"><path style="stroke:none" d=""/></g></g><g style="fill:#ea0e68;fill-opacity:1;"><g transform="translate(219.582394, 273.28718)"><path style="stroke:none" d="M 4.71875 0.15625 C 3.9375 0.15625 3.25 0.046875 2.65625 -0.171875 C 2.0625 -0.390625 1.488281 -0.742188 0.9375 -1.234375 C 0.71875 -1.421875 0.609375 -1.640625 0.609375 -1.890625 C 0.609375 -2.078125 0.679688 -2.25 0.828125 -2.40625 C 0.984375 -2.5625 1.160156 -2.640625 1.359375 -2.640625 C 1.535156 -2.640625 1.691406 -2.582031 1.828125 -2.46875 C 2.253906 -2.070312 2.691406 -1.78125 3.140625 -1.59375 C 3.597656 -1.40625 4.113281 -1.3125 4.6875 -1.3125 C 5.363281 -1.3125 5.929688 -1.460938 6.390625 -1.765625 C 6.859375 -2.078125 7.09375 -2.46875 7.09375 -2.9375 C 7.082031 -3.5 6.847656 -3.929688 6.390625 -4.234375 C 5.941406 -4.535156 5.25 -4.785156 4.3125 -4.984375 C 3.21875 -5.210938 2.375 -5.582031 1.78125 -6.09375 C 1.1875 -6.601562 0.890625 -7.3125 0.890625 -8.21875 C 0.890625 -8.851562 1.054688 -9.40625 1.390625 -9.875 C 1.722656 -10.351562 2.179688 -10.71875 2.765625 -10.96875 C 3.347656 -11.226562 4.007812 -11.359375 4.75 -11.359375 C 5.414062 -11.359375 6.039062 -11.25 6.625 -11.03125 C 7.207031 -10.820312 7.679688 -10.539062 8.046875 -10.1875 C 8.296875 -9.976562 8.421875 -9.75 8.421875 -9.5 C 8.421875 -9.3125 8.347656 -9.140625 8.203125 -8.984375 C 8.054688 -8.835938 7.882812 -8.765625 7.6875 -8.765625 C 7.53125 -8.765625 7.40625 -8.804688 7.3125 -8.890625 C 7.03125 -9.171875 6.644531 -9.40625 6.15625 -9.59375 C 5.664062 -9.789062 5.195312 -9.890625 4.75 -9.890625 C 4.039062 -9.890625 3.472656 -9.742188 3.046875 -9.453125 C 2.628906 -9.160156 2.421875 -8.769531 2.421875 -8.28125 C 2.421875 -7.757812 2.628906 -7.359375 3.046875 -7.078125 C 3.472656 -6.804688 4.097656 -6.578125 4.921875 -6.390625 C 5.753906 -6.203125 6.4375 -5.984375 6.96875 -5.734375 C 7.5 -5.492188 7.90625 -5.15625 8.1875 -4.71875 C 8.476562 -4.28125 8.625 -3.710938 8.625 -3.015625 C 8.625 -2.390625 8.445312 -1.835938 8.09375 -1.359375 C 7.75 -0.878906 7.28125 -0.503906 6.6875 -0.234375 C 6.09375 0.0234375 5.4375 0.15625 4.71875 0.15625 Z M 4.71875 0.15625 "/></g></g><g style="fill:#ea0e68;fill-opacity:1;"><g transform="translate(230.556156, 273.28718)"><path style="stroke:none" d="M 9.03125 -10.484375 C 9.03125 -10.316406 8.976562 -10.15625 8.875 -10 L 5.4375 -5.15625 L 5.4375 -0.765625 C 5.4375 -0.554688 5.363281 -0.375 5.21875 -0.21875 C 5.082031 -0.0703125 4.910156 0 4.703125 0 C 4.492188 0 4.3125 -0.0703125 4.15625 -0.21875 C 4.007812 -0.375 3.9375 -0.554688 3.9375 -0.765625 L 3.9375 -5.28125 L 0.515625 -9.90625 C 0.359375 -10.09375 0.28125 -10.285156 0.28125 -10.484375 C 0.28125 -10.691406 0.363281 -10.867188 0.53125 -11.015625 C 0.707031 -11.171875 0.898438 -11.25 1.109375 -11.25 C 1.347656 -11.25 1.554688 -11.128906 1.734375 -10.890625 L 4.734375 -6.734375 L 7.625 -10.875 C 7.800781 -11.125 8.015625 -11.25 8.265625 -11.25 C 8.472656 -11.25 8.648438 -11.171875 8.796875 -11.015625 C 8.953125 -10.867188 9.03125 -10.691406 9.03125 -10.484375 Z M 9.03125 -10.484375 "/></g></g><g style="fill:#ea0e68;fill-opacity:1;"><g transform="translate(241.513919, 273.28718)"><path style="stroke:none" d="M 4.71875 0.15625 C 3.9375 0.15625 3.25 0.046875 2.65625 -0.171875 C 2.0625 -0.390625 1.488281 -0.742188 0.9375 -1.234375 C 0.71875 -1.421875 0.609375 -1.640625 0.609375 -1.890625 C 0.609375 -2.078125 0.679688 -2.25 0.828125 -2.40625 C 0.984375 -2.5625 1.160156 -2.640625 1.359375 -2.640625 C 1.535156 -2.640625 1.691406 -2.582031 1.828125 -2.46875 C 2.253906 -2.070312 2.691406 -1.78125 3.140625 -1.59375 C 3.597656 -1.40625 4.113281 -1.3125 4.6875 -1.3125 C 5.363281 -1.3125 5.929688 -1.460938 6.390625 -1.765625 C 6.859375 -2.078125 7.09375 -2.46875 7.09375 -2.9375 C 7.082031 -3.5 6.847656 -3.929688 6.390625 -4.234375 C 5.941406 -4.535156 5.25 -4.785156 4.3125 -4.984375 C 3.21875 -5.210938 2.375 -5.582031 1.78125 -6.09375 C 1.1875 -6.601562 0.890625 -7.3125 0.890625 -8.21875 C 0.890625 -8.851562 1.054688 -9.40625 1.390625 -9.875 C 1.722656 -10.351562 2.179688 -10.71875 2.765625 -10.96875 C 3.347656 -11.226562 4.007812 -11.359375 4.75 -11.359375 C 5.414062 -11.359375 6.039062 -11.25 6.625 -11.03125 C 7.207031 -10.820312 7.679688 -10.539062 8.046875 -10.1875 C 8.296875 -9.976562 8.421875 -9.75 8.421875 -9.5 C 8.421875 -9.3125 8.347656 -9.140625 8.203125 -8.984375 C 8.054688 -8.835938 7.882812 -8.765625 7.6875 -8.765625 C 7.53125 -8.765625 7.40625 -8.804688 7.3125 -8.890625 C 7.03125 -9.171875 6.644531 -9.40625 6.15625 -9.59375 C 5.664062 -9.789062 5.195312 -9.890625 4.75 -9.890625 C 4.039062 -9.890625 3.472656 -9.742188 3.046875 -9.453125 C 2.628906 -9.160156 2.421875 -8.769531 2.421875 -8.28125 C 2.421875 -7.757812 2.628906 -7.359375 3.046875 -7.078125 C 3.472656 -6.804688 4.097656 -6.578125 4.921875 -6.390625 C 5.753906 -6.203125 6.4375 -5.984375 6.96875 -5.734375 C 7.5 -5.492188 7.90625 -5.15625 8.1875 -4.71875 C 8.476562 -4.28125 8.625 -3.710938 8.625 -3.015625 C 8.625 -2.390625 8.445312 -1.835938 8.09375 -1.359375 C 7.75 -0.878906 7.28125 -0.503906 6.6875 -0.234375 C 6.09375 0.0234375 5.4375 0.15625 4.71875 0.15625 Z M 4.71875 0.15625 "/></g></g><g style="fill:#ea0e68;fill-opacity:1;"><g transform="translate(252.487681, 273.28718)"><path style="stroke:none" d="M 8.59375 -11.203125 C 8.8125 -11.203125 8.992188 -11.132812 9.140625 -11 C 9.285156 -10.863281 9.359375 -10.6875 9.359375 -10.46875 C 9.359375 -10.238281 9.285156 -10.0625 9.140625 -9.9375 C 8.992188 -9.8125 8.8125 -9.75 8.59375 -9.75 L 5.75 -9.75 L 5.75 -0.765625 C 5.75 -0.554688 5.671875 -0.375 5.515625 -0.21875 C 5.359375 -0.0703125 5.160156 0 4.921875 0 C 4.691406 0 4.5 -0.0703125 4.34375 -0.21875 C 4.1875 -0.375 4.109375 -0.554688 4.109375 -0.765625 L 4.109375 -9.75 L 1.28125 -9.75 C 1.050781 -9.75 0.863281 -9.8125 0.71875 -9.9375 C 0.582031 -10.070312 0.515625 -10.253906 0.515625 -10.484375 C 0.515625 -10.691406 0.582031 -10.863281 0.71875 -11 C 0.863281 -11.132812 1.050781 -11.203125 1.28125 -11.203125 Z M 8.59375 -11.203125 "/></g></g><g style="fill:#ea0e68;fill-opacity:1;"><g transform="translate(264.021299, 273.28718)"><path style="stroke:none" d="M 7.65625 -1.46875 C 7.882812 -1.46875 8.070312 -1.394531 8.21875 -1.25 C 8.363281 -1.101562 8.4375 -0.925781 8.4375 -0.71875 C 8.4375 -0.507812 8.363281 -0.335938 8.21875 -0.203125 C 8.070312 -0.0664062 7.882812 0 7.65625 0 L 2.09375 0 C 1.882812 0 1.703125 -0.0703125 1.546875 -0.21875 C 1.398438 -0.375 1.328125 -0.554688 1.328125 -0.765625 L 1.328125 -10.4375 C 1.328125 -10.644531 1.398438 -10.820312 1.546875 -10.96875 C 1.703125 -11.125 1.882812 -11.203125 2.09375 -11.203125 L 7.65625 -11.203125 C 7.882812 -11.203125 8.070312 -11.128906 8.21875 -10.984375 C 8.363281 -10.847656 8.4375 -10.671875 8.4375 -10.453125 C 8.4375 -10.234375 8.363281 -10.054688 8.21875 -9.921875 C 8.070312 -9.796875 7.882812 -9.734375 7.65625 -9.734375 L 2.90625 -9.734375 L 2.90625 -6.46875 L 6.9375 -6.46875 C 7.164062 -6.46875 7.351562 -6.394531 7.5 -6.25 C 7.644531 -6.113281 7.71875 -5.941406 7.71875 -5.734375 C 7.71875 -5.503906 7.644531 -5.328125 7.5 -5.203125 C 7.351562 -5.078125 7.164062 -5.015625 6.9375 -5.015625 L 2.90625 -5.015625 L 2.90625 -1.46875 Z M 7.65625 -1.46875 "/></g></g><g style="fill:#ea0e68;fill-opacity:1;"><g transform="translate(274.803098, 273.28718)"><path style="stroke:none" d="M 11.0625 -11.21875 C 11.269531 -11.207031 11.445312 -11.128906 11.59375 -10.984375 C 11.75 -10.835938 11.828125 -10.660156 11.828125 -10.453125 L 11.828125 -0.765625 C 11.828125 -0.554688 11.753906 -0.375 11.609375 -0.21875 C 11.460938 -0.0703125 11.273438 0 11.046875 0 C 10.804688 0 10.609375 -0.0703125 10.453125 -0.21875 C 10.304688 -0.363281 10.234375 -0.546875 10.234375 -0.765625 L 10.234375 -8.171875 L 7.140625 -3.46875 C 7.066406 -3.375 6.972656 -3.296875 6.859375 -3.234375 C 6.742188 -3.171875 6.628906 -3.144531 6.515625 -3.15625 C 6.410156 -3.144531 6.300781 -3.171875 6.1875 -3.234375 C 6.070312 -3.296875 5.976562 -3.375 5.90625 -3.46875 L 2.78125 -8.3125 L 2.78125 -0.765625 C 2.78125 -0.546875 2.710938 -0.363281 2.578125 -0.21875 C 2.453125 -0.0703125 2.273438 0 2.046875 0 C 1.835938 0 1.664062 -0.0703125 1.53125 -0.21875 C 1.394531 -0.363281 1.328125 -0.546875 1.328125 -0.765625 L 1.328125 -10.453125 C 1.328125 -10.648438 1.398438 -10.828125 1.546875 -10.984375 C 1.703125 -11.140625 1.890625 -11.21875 2.109375 -11.21875 C 2.234375 -11.21875 2.359375 -11.1875 2.484375 -11.125 C 2.609375 -11.0625 2.707031 -10.972656 2.78125 -10.859375 L 6.578125 -5.125 L 10.421875 -10.859375 C 10.585938 -11.097656 10.800781 -11.21875 11.0625 -11.21875 Z M 11.0625 -11.21875 "/></g></g></g></svg>