<svg xmlns="http://www.w3.org/2000/svg" xmlns:xlink="http://www.w3.org/1999/xlink" width="500" zoomAndPan="magnify" viewBox="0 0 375 374.999991" height="500" preserveAspectRatio="xMidYMid meet" version="1.2"><defs><filter x="0%" y="0%" width="100%" filterUnits="objectBoundingBox" id="1718730d76" height="100%"><feColorMatrix values="0 0 0 0 1 0 0 0 0 1 0 0 0 0 1 0 0 0 1 0" type="matrix" in="SourceGraphic"/></filter><clipPath id="5791850aef"><path d="M 0.359375 0.839844 L 140 0.839844 L 140 176 L 0.359375 176 Z M 0.359375 0.839844 "/></clipPath><clipPath id="187f59f659"><path d="M 0.492188 32.691406 L 87.777344 0.921875 L 139.949219 144.261719 L 52.664062 176.03125 Z M 0.492188 32.691406 "/></clipPath><clipPath id="d0da46cd3f"><rect x="0" width="141" y="0" height="177"/></clipPath></defs><g id="bd55d93f1b"><rect x="0" width="375" y="0" height="374.999991" style="fill:#ffffff;fill-opacity:1;stroke:none;"/><rect x="0" width="375" y="0" height="374.999991" style="fill:#d9d9d9;fill-opacity:1;stroke:none;"/><g style="fill:#000000;fill-opacity:1;"><g transform="translate(70.253941, 255.975553)"><path style="stroke:none" d="M 132.78125 -139.125 L 132.78125 0 L 98.890625 0 L 98.890625 -57.28125 L 46.171875 -57.28125 L 46.171875 0 L 12.28125 0 L 12.28125 -139.125 L 46.171875 -139.125 L 46.171875 -84.625 L 98.890625 -84.625 L 98.890625 -139.125 Z M 132.78125 -139.125 "/></g></g><g style="fill:#000000;fill-opacity:1;"><g transform="translate(175.488825, 255.975553)"><path style="stroke:none" d="M 83.234375 0 L 54.296875 -52.515625 L 46.171875 -52.515625 L 46.171875 0 L 12.28125 0 L 12.28125 -139.125 L 69.171875 -139.125 C 80.128906 -139.125 89.472656 -137.207031 97.203125 -133.375 C 104.941406 -129.539062 110.722656 -124.285156 114.546875 -117.609375 C 118.378906 -110.941406 120.296875 -103.515625 120.296875 -95.328125 C 120.296875 -86.078125 117.6875 -77.816406 112.46875 -70.546875 C 107.25 -63.285156 99.550781 -58.132812 89.375 -55.09375 L 121.484375 0 Z M 46.171875 -76.5 L 67.1875 -76.5 C 73.394531 -76.5 78.050781 -78.015625 81.15625 -81.046875 C 84.257812 -84.085938 85.8125 -88.382812 85.8125 -93.9375 C 85.8125 -99.226562 84.257812 -103.390625 81.15625 -106.421875 C 78.050781 -109.460938 73.394531 -110.984375 67.1875 -110.984375 L 46.171875 -110.984375 Z M 46.171875 -76.5 "/></g></g><g mask="url(#be2acc187c)" transform="matrix(1,0,0,1,195,87)"><g clip-path="url(#d0da46cd3f)"><g clip-rule="nonzero" clip-path="url(#5791850aef)"><g clip-rule="nonzero" clip-path="url(#187f59f659)"><path style=" stroke:none;fill-rule:nonzero;fill:#d9d9d9;fill-opacity:1;" d="M 0.492188 32.691406 L 87.777344 0.921875 L 139.898438 144.125 L 52.613281 175.894531 Z M 0.492188 32.691406 "/></g></g></g><mask id="be2acc187c"><g filter="url(#1718730d76)"><rect x="0" width="375" y="0" height="374.999991" style="fill:#000000;fill-opacity:0.89;stroke:none;"/></g></mask></g><path style="fill:none;stroke-width:6;stroke-linecap:round;stroke-linejoin:miter;stroke:#d9d9d9;stroke-opacity:1;stroke-miterlimit:4;" d="M 3.002368 2.999764 L 275.802805 3.000995 " transform="matrix(0.256515,0.704769,-0.704769,0.256515,132.793208,93.665319)"/><g style="fill:#000000;fill-opacity:1;"><g transform="translate(98.10333, 277.736736)"><path style="stroke:none" d="M 8.421875 -7.625 L 8.421875 0 L 7.65625 0 L 7.65625 -6.09375 L 4.9375 0 L 4.375 0 L 1.65625 -6.0625 L 1.65625 0 L 0.890625 0 L 0.890625 -7.625 L 1.703125 -7.625 L 4.65625 -1.015625 L 7.59375 -7.625 Z M 8.421875 -7.625 "/></g></g><g style="fill:#000000;fill-opacity:1;"><g transform="translate(111.318219, 277.736736)"><path style="stroke:none" d="M 5.359375 -1.828125 L 1.84375 -1.828125 L 1.171875 0 L 0.359375 0 L 3.171875 -7.625 L 4.046875 -7.625 L 6.84375 0 L 6.03125 0 Z M 5.125 -2.46875 L 3.59375 -6.65625 L 2.078125 -2.46875 Z M 5.125 -2.46875 "/></g></g><g style="fill:#000000;fill-opacity:1;"><g transform="translate(122.433747, 277.736736)"><path style="stroke:none" d="M 6.703125 0 L 5.9375 0 L 1.65625 -6.5 L 1.65625 0 L 0.890625 0 L 0.890625 -7.71875 L 1.65625 -7.71875 L 5.9375 -1.234375 L 5.9375 -7.71875 L 6.703125 -7.71875 Z M 6.703125 0 "/></g></g><g style="fill:#000000;fill-opacity:1;"><g transform="translate(133.924953, 277.736736)"><path style="stroke:none" d="M 5.359375 -1.828125 L 1.84375 -1.828125 L 1.171875 0 L 0.359375 0 L 3.171875 -7.625 L 4.046875 -7.625 L 6.84375 0 L 6.03125 0 Z M 5.125 -2.46875 L 3.59375 -6.65625 L 2.078125 -2.46875 Z M 5.125 -2.46875 "/></g></g><g style="fill:#000000;fill-opacity:1;"><g transform="translate(145.040481, 277.736736)"><path style="stroke:none" d="M 6.953125 -5.46875 C 6.734375 -5.976562 6.394531 -6.378906 5.9375 -6.671875 C 5.488281 -6.960938 4.960938 -7.109375 4.359375 -7.109375 C 3.773438 -7.109375 3.253906 -6.972656 2.796875 -6.703125 C 2.347656 -6.441406 1.988281 -6.066406 1.71875 -5.578125 C 1.457031 -5.085938 1.328125 -4.515625 1.328125 -3.859375 C 1.328125 -3.210938 1.457031 -2.640625 1.71875 -2.140625 C 1.988281 -1.648438 2.347656 -1.273438 2.796875 -1.015625 C 3.253906 -0.753906 3.773438 -0.625 4.359375 -0.625 C 4.890625 -0.625 5.367188 -0.738281 5.796875 -0.96875 C 6.234375 -1.195312 6.582031 -1.523438 6.84375 -1.953125 C 7.101562 -2.390625 7.253906 -2.894531 7.296875 -3.46875 L 4.046875 -3.46875 L 4.046875 -4.09375 L 8.109375 -4.09375 L 8.109375 -3.53125 C 8.066406 -2.851562 7.878906 -2.238281 7.546875 -1.6875 C 7.222656 -1.144531 6.78125 -0.710938 6.21875 -0.390625 C 5.664062 -0.078125 5.046875 0.078125 4.359375 0.078125 C 3.640625 0.078125 2.988281 -0.0859375 2.40625 -0.421875 C 1.820312 -0.753906 1.363281 -1.222656 1.03125 -1.828125 C 0.695312 -2.429688 0.53125 -3.109375 0.53125 -3.859375 C 0.53125 -4.617188 0.695312 -5.300781 1.03125 -5.90625 C 1.363281 -6.507812 1.820312 -6.976562 2.40625 -7.3125 C 2.988281 -7.644531 3.640625 -7.8125 4.359375 -7.8125 C 5.179688 -7.8125 5.898438 -7.601562 6.515625 -7.1875 C 7.140625 -6.78125 7.585938 -6.207031 7.859375 -5.46875 Z M 6.953125 -5.46875 "/></g></g><g style="fill:#000000;fill-opacity:1;"><g transform="translate(157.592417, 277.736736)"><path style="stroke:none" d="M 1.65625 -7.09375 L 1.65625 -4.203125 L 4.578125 -4.203125 L 4.578125 -3.5625 L 1.65625 -3.5625 L 1.65625 -0.640625 L 4.921875 -0.640625 L 4.921875 0 L 0.890625 0 L 0.890625 -7.734375 L 4.921875 -7.734375 L 4.921875 -7.09375 Z M 1.65625 -7.09375 "/></g></g><g style="fill:#000000;fill-opacity:1;"><g transform="translate(167.061606, 277.736736)"><path style="stroke:none" d="M 8.421875 -7.625 L 8.421875 0 L 7.65625 0 L 7.65625 -6.09375 L 4.9375 0 L 4.375 0 L 1.65625 -6.0625 L 1.65625 0 L 0.890625 0 L 0.890625 -7.625 L 1.703125 -7.625 L 4.65625 -1.015625 L 7.59375 -7.625 Z M 8.421875 -7.625 "/></g></g><g style="fill:#000000;fill-opacity:1;"><g transform="translate(180.276495, 277.736736)"><path style="stroke:none" d="M 1.65625 -7.09375 L 1.65625 -4.203125 L 4.578125 -4.203125 L 4.578125 -3.5625 L 1.65625 -3.5625 L 1.65625 -0.640625 L 4.921875 -0.640625 L 4.921875 0 L 0.890625 0 L 0.890625 -7.734375 L 4.921875 -7.734375 L 4.921875 -7.09375 Z M 1.65625 -7.09375 "/></g></g><g style="fill:#000000;fill-opacity:1;"><g transform="translate(189.745684, 277.736736)"><path style="stroke:none" d="M 6.703125 0 L 5.9375 0 L 1.65625 -6.5 L 1.65625 0 L 0.890625 0 L 0.890625 -7.71875 L 1.65625 -7.71875 L 5.9375 -1.234375 L 5.9375 -7.71875 L 6.703125 -7.71875 Z M 6.703125 0 "/></g></g><g style="fill:#000000;fill-opacity:1;"><g transform="translate(201.23689, 277.736736)"><path style="stroke:none" d="M 5.40625 -7.71875 L 5.40625 -7.078125 L 3.265625 -7.078125 L 3.265625 0 L 2.484375 0 L 2.484375 -7.078125 L 0.328125 -7.078125 L 0.328125 -7.71875 Z M 5.40625 -7.71875 "/></g></g><g style="fill:#000000;fill-opacity:1;"><g transform="translate(210.893924, 277.736736)"><path style="stroke:none" d=""/></g></g><g style="fill:#000000;fill-opacity:1;"><g transform="translate(217.832831, 277.736736)"><path style="stroke:none" d="M 3.21875 0.078125 C 2.71875 0.078125 2.269531 -0.0078125 1.875 -0.1875 C 1.488281 -0.363281 1.1875 -0.609375 0.96875 -0.921875 C 0.75 -1.242188 0.632812 -1.597656 0.625 -1.984375 L 1.4375 -1.984375 C 1.46875 -1.609375 1.628906 -1.28125 1.921875 -1 C 2.222656 -0.71875 2.65625 -0.578125 3.21875 -0.578125 C 3.75 -0.578125 4.164062 -0.707031 4.46875 -0.96875 C 4.769531 -1.238281 4.921875 -1.582031 4.921875 -2 C 4.921875 -2.332031 4.835938 -2.597656 4.671875 -2.796875 C 4.503906 -3.003906 4.296875 -3.15625 4.046875 -3.25 C 3.796875 -3.351562 3.445312 -3.460938 3 -3.578125 C 2.488281 -3.722656 2.082031 -3.859375 1.78125 -3.984375 C 1.476562 -4.117188 1.21875 -4.328125 1 -4.609375 C 0.789062 -4.890625 0.6875 -5.269531 0.6875 -5.75 C 0.6875 -6.144531 0.785156 -6.5 0.984375 -6.8125 C 1.191406 -7.125 1.484375 -7.367188 1.859375 -7.546875 C 2.242188 -7.722656 2.675781 -7.8125 3.15625 -7.8125 C 3.875 -7.8125 4.453125 -7.632812 4.890625 -7.28125 C 5.328125 -6.9375 5.578125 -6.488281 5.640625 -5.9375 L 4.8125 -5.9375 C 4.757812 -6.25 4.582031 -6.523438 4.28125 -6.765625 C 3.988281 -7.015625 3.59375 -7.140625 3.09375 -7.140625 C 2.625 -7.140625 2.234375 -7.015625 1.921875 -6.765625 C 1.617188 -6.523438 1.46875 -6.191406 1.46875 -5.765625 C 1.46875 -5.441406 1.550781 -5.179688 1.71875 -4.984375 C 1.894531 -4.785156 2.109375 -4.632812 2.359375 -4.53125 C 2.609375 -4.425781 2.953125 -4.316406 3.390625 -4.203125 C 3.890625 -4.054688 4.296875 -3.914062 4.609375 -3.78125 C 4.921875 -3.644531 5.179688 -3.4375 5.390625 -3.15625 C 5.609375 -2.875 5.71875 -2.5 5.71875 -2.03125 C 5.71875 -1.664062 5.617188 -1.320312 5.421875 -1 C 5.234375 -0.675781 4.953125 -0.414062 4.578125 -0.21875 C 4.203125 -0.0195312 3.75 0.078125 3.21875 0.078125 Z M 3.21875 0.078125 "/></g></g><g style="fill:#000000;fill-opacity:1;"><g transform="translate(228.064417, 277.736736)"><path style="stroke:none" d="M 5.984375 -7.71875 L 3.515625 -3 L 3.515625 0 L 2.734375 0 L 2.734375 -3 L 0.25 -7.71875 L 1.109375 -7.71875 L 3.125 -3.71875 L 5.125 -7.71875 Z M 5.984375 -7.71875 "/></g></g><g style="fill:#000000;fill-opacity:1;"><g transform="translate(238.207616, 277.736736)"><path style="stroke:none" d="M 3.21875 0.078125 C 2.71875 0.078125 2.269531 -0.0078125 1.875 -0.1875 C 1.488281 -0.363281 1.1875 -0.609375 0.96875 -0.921875 C 0.75 -1.242188 0.632812 -1.597656 0.625 -1.984375 L 1.4375 -1.984375 C 1.46875 -1.609375 1.628906 -1.28125 1.921875 -1 C 2.222656 -0.71875 2.65625 -0.578125 3.21875 -0.578125 C 3.75 -0.578125 4.164062 -0.707031 4.46875 -0.96875 C 4.769531 -1.238281 4.921875 -1.582031 4.921875 -2 C 4.921875 -2.332031 4.835938 -2.597656 4.671875 -2.796875 C 4.503906 -3.003906 4.296875 -3.15625 4.046875 -3.25 C 3.796875 -3.351562 3.445312 -3.460938 3 -3.578125 C 2.488281 -3.722656 2.082031 -3.859375 1.78125 -3.984375 C 1.476562 -4.117188 1.21875 -4.328125 1 -4.609375 C 0.789062 -4.890625 0.6875 -5.269531 0.6875 -5.75 C 0.6875 -6.144531 0.785156 -6.5 0.984375 -6.8125 C 1.191406 -7.125 1.484375 -7.367188 1.859375 -7.546875 C 2.242188 -7.722656 2.675781 -7.8125 3.15625 -7.8125 C 3.875 -7.8125 4.453125 -7.632812 4.890625 -7.28125 C 5.328125 -6.9375 5.578125 -6.488281 5.640625 -5.9375 L 4.8125 -5.9375 C 4.757812 -6.25 4.582031 -6.523438 4.28125 -6.765625 C 3.988281 -7.015625 3.59375 -7.140625 3.09375 -7.140625 C 2.625 -7.140625 2.234375 -7.015625 1.921875 -6.765625 C 1.617188 -6.523438 1.46875 -6.191406 1.46875 -5.765625 C 1.46875 -5.441406 1.550781 -5.179688 1.71875 -4.984375 C 1.894531 -4.785156 2.109375 -4.632812 2.359375 -4.53125 C 2.609375 -4.425781 2.953125 -4.316406 3.390625 -4.203125 C 3.890625 -4.054688 4.296875 -3.914062 4.609375 -3.78125 C 4.921875 -3.644531 5.179688 -3.4375 5.390625 -3.15625 C 5.609375 -2.875 5.71875 -2.5 5.71875 -2.03125 C 5.71875 -1.664062 5.617188 -1.320312 5.421875 -1 C 5.234375 -0.675781 4.953125 -0.414062 4.578125 -0.21875 C 4.203125 -0.0195312 3.75 0.078125 3.21875 0.078125 Z M 3.21875 0.078125 "/></g></g><g style="fill:#000000;fill-opacity:1;"><g transform="translate(248.439203, 277.736736)"><path style="stroke:none" d="M 5.40625 -7.71875 L 5.40625 -7.078125 L 3.265625 -7.078125 L 3.265625 0 L 2.484375 0 L 2.484375 -7.078125 L 0.328125 -7.078125 L 0.328125 -7.71875 Z M 5.40625 -7.71875 "/></g></g><g style="fill:#000000;fill-opacity:1;"><g transform="translate(258.096237, 277.736736)"><path style="stroke:none" d="M 1.65625 -7.09375 L 1.65625 -4.203125 L 4.578125 -4.203125 L 4.578125 -3.5625 L 1.65625 -3.5625 L 1.65625 -0.640625 L 4.921875 -0.640625 L 4.921875 0 L 0.890625 0 L 0.890625 -7.734375 L 4.921875 -7.734375 L 4.921875 -7.09375 Z M 1.65625 -7.09375 "/></g></g><g style="fill:#000000;fill-opacity:1;"><g transform="translate(267.565426, 277.736736)"><path style="stroke:none" d="M 8.421875 -7.625 L 8.421875 0 L 7.65625 0 L 7.65625 -6.09375 L 4.9375 0 L 4.375 0 L 1.65625 -6.0625 L 1.65625 0 L 0.890625 0 L 0.890625 -7.625 L 1.703125 -7.625 L 4.65625 -1.015625 L 7.59375 -7.625 Z M 8.421875 -7.625 "/></g></g></g></svg>