<svg xmlns="http://www.w3.org/2000/svg" xmlns:xlink="http://www.w3.org/1999/xlink" width="500" zoomAndPan="magnify" viewBox="0 0 375 374.999991" height="500" preserveAspectRatio="xMidYMid meet" version="1.2"><defs/><g id="2e0d9fabb5"><rect x="0" width="375" y="0" height="374.999991" style="fill:#ffffff;fill-opacity:1;stroke:none;"/><rect x="0" width="375" y="0" height="374.999991" style="fill:#ffffff;fill-opacity:1;stroke:none;"/><path style=" stroke:none;fill-rule:nonzero;fill:#ea0e68;fill-opacity:1;" d="M 77.320312 235.375 C 67.230469 238.835938 55.597656 236.546875 47.542969 228.492188 C 36.28125 217.226562 36.28125 198.960938 47.542969 187.699219 C 58.808594 176.433594 77.074219 176.433594 88.339844 187.699219 C 97.058594 196.421875 99.023438 209.335938 94.238281 219.953125 L 144.691406 219.632812 L 115.222656 249.101562 C 110.886719 246.382812 105.246094 247.003906 101.601562 250.597656 L 70.699219 281.082031 L 77.320312 235.375 "/><path style=" stroke:none;fill-rule:nonzero;fill:#8d198f;fill-opacity:1;" d="M 142.769531 299.152344 C 138.082031 308.738281 128.234375 315.339844 116.847656 315.339844 C 100.914062 315.339844 88.003906 302.425781 88.003906 286.496094 C 88.003906 270.566406 100.914062 257.648438 116.847656 257.648438 C 129.183594 257.648438 139.703125 265.394531 143.828125 276.285156 L 179.277344 240.382812 L 179.277344 282.058594 C 174.285156 283.203125 170.738281 287.628906 170.703125 292.746094 L 170.40625 336.15625 L 142.769531 299.152344 "/><path style=" stroke:none;fill-rule:nonzero;fill:#00adef;fill-opacity:1;" d="M 234.144531 297.96875 C 237.605469 308.0625 235.316406 319.691406 227.261719 327.746094 C 215.996094 339.011719 197.730469 339.011719 186.46875 327.746094 C 175.203125 316.484375 175.203125 298.21875 186.46875 286.953125 C 195.191406 278.234375 208.109375 276.269531 218.726562 281.054688 L 218.402344 230.601562 L 247.871094 260.070312 C 245.152344 264.40625 245.773438 270.046875 249.367188 273.6875 L 279.851562 304.59375 L 234.144531 297.96875 "/><path style=" stroke:none;fill-rule:nonzero;fill:#36ab9c;fill-opacity:1;" d="M 297.921875 232.523438 C 307.507812 237.210938 314.109375 247.054688 314.109375 258.445312 C 314.109375 274.375 301.195312 287.292969 285.265625 287.292969 C 269.335938 287.292969 256.421875 274.375 256.421875 258.445312 C 256.421875 246.109375 264.164062 235.589844 275.054688 231.464844 L 239.152344 196.015625 L 280.828125 196.015625 C 281.972656 201.007812 286.398438 204.554688 291.515625 204.589844 L 334.925781 204.886719 L 297.921875 232.523438 "/><path style=" stroke:none;fill-rule:nonzero;fill:#81cd35;fill-opacity:1;" d="M 296.742188 141.144531 C 306.835938 137.683594 318.464844 139.976562 326.519531 148.03125 C 337.78125 159.292969 337.78125 177.558594 326.519531 188.824219 C 315.253906 200.089844 296.992188 200.089844 285.726562 188.824219 C 277.003906 180.101562 275.039062 167.183594 279.824219 156.566406 L 229.371094 156.886719 L 258.84375 127.421875 C 263.179688 130.136719 268.816406 129.519531 272.460938 125.921875 L 303.363281 95.441406 L 296.742188 141.144531 "/><path style=" stroke:none;fill-rule:nonzero;fill:#f6ca0e;fill-opacity:1;" d="M 231.292969 77.371094 C 235.980469 67.785156 245.828125 61.183594 257.214844 61.183594 C 273.144531 61.183594 286.058594 74.097656 286.058594 90.027344 C 286.058594 105.957031 273.144531 118.871094 257.214844 118.871094 C 244.882812 118.871094 234.359375 111.125 230.234375 100.238281 L 194.785156 136.140625 L 194.785156 94.464844 C 199.777344 93.320312 203.324219 88.894531 203.359375 83.777344 L 203.65625 40.367188 L 231.292969 77.371094 "/><path style=" stroke:none;fill-rule:nonzero;fill:#ea5c26;fill-opacity:1;" d="M 139.917969 78.550781 C 136.457031 68.457031 138.746094 56.828125 146.800781 48.773438 C 158.066406 37.511719 176.328125 37.511719 187.59375 48.773438 C 198.859375 60.039062 198.859375 78.300781 187.59375 89.566406 C 178.871094 98.289062 165.953125 100.253906 155.339844 95.46875 L 155.660156 145.921875 L 126.191406 116.453125 C 128.910156 112.113281 128.289062 106.476562 124.695312 102.832031 L 94.210938 71.929688 L 139.917969 78.550781 "/><path style=" stroke:none;fill-rule:nonzero;fill:#b81554;fill-opacity:1;" d="M 76.140625 144 C 66.554688 139.3125 59.953125 129.46875 59.953125 118.078125 C 59.953125 102.144531 72.867188 89.230469 88.796875 89.230469 C 104.726562 89.230469 117.640625 102.144531 117.640625 118.078125 C 117.640625 130.414062 109.898438 140.933594 99.007812 145.058594 L 134.910156 180.503906 L 93.234375 180.503906 C 92.089844 175.515625 87.664062 171.96875 82.546875 171.933594 L 39.136719 171.636719 L 76.140625 144 "/><g style="fill:#ffffff;fill-opacity:1;"><g transform="translate(183.413248, 184.29929)"><path style="stroke:none" d="M 6.1875 -7.375 C 6.332031 -7.375 6.453125 -7.328125 6.546875 -7.234375 C 6.648438 -7.140625 6.703125 -7.015625 6.703125 -6.859375 L 6.703125 -0.515625 C 6.703125 -0.367188 6.648438 -0.242188 6.546875 -0.140625 C 6.453125 -0.046875 6.328125 0 6.171875 0 C 6.023438 0 5.898438 -0.046875 5.796875 -0.140625 C 5.703125 -0.242188 5.65625 -0.367188 5.65625 -0.515625 L 5.65625 -3.25 L 1.921875 -3.25 L 1.921875 -0.515625 C 1.921875 -0.367188 1.863281 -0.242188 1.75 -0.140625 C 1.644531 -0.046875 1.523438 0 1.390625 0 C 1.234375 0 1.109375 -0.046875 1.015625 -0.140625 C 0.921875 -0.242188 0.875 -0.367188 0.875 -0.515625 L 0.875 -6.859375 C 0.875 -7.003906 0.921875 -7.125 1.015625 -7.21875 C 1.117188 -7.320312 1.25 -7.375 1.40625 -7.375 C 1.539062 -7.375 1.660156 -7.320312 1.765625 -7.21875 C 1.867188 -7.125 1.921875 -7.003906 1.921875 -6.859375 L 1.921875 -4.21875 L 5.65625 -4.21875 L 5.65625 -6.859375 C 5.65625 -7.003906 5.707031 -7.125 5.8125 -7.21875 C 5.914062 -7.320312 6.039062 -7.375 6.1875 -7.375 Z M 6.1875 -7.375 "/></g></g><g style="fill:#ffffff;fill-opacity:1;"><g transform="translate(192.084458, 184.29929)"><path style="stroke:none" d="M 6.484375 -0.84375 C 6.554688 -0.789062 6.613281 -0.726562 6.65625 -0.65625 C 6.695312 -0.582031 6.71875 -0.507812 6.71875 -0.4375 C 6.71875 -0.28125 6.671875 -0.164062 6.578125 -0.09375 C 6.484375 -0.03125 6.367188 0 6.234375 0 C 6.097656 0 5.984375 -0.0234375 5.890625 -0.078125 C 5.679688 -0.203125 5.507812 -0.394531 5.375 -0.65625 C 5.25 -0.925781 5.1875 -1.320312 5.1875 -1.84375 C 5.1875 -2.195312 5.078125 -2.457031 4.859375 -2.625 C 4.648438 -2.789062 4.378906 -2.875 4.046875 -2.875 L 1.921875 -2.875 L 1.921875 -0.5 C 1.921875 -0.351562 1.875 -0.234375 1.78125 -0.140625 C 1.695312 -0.046875 1.59375 0 1.46875 0 C 1.300781 0 1.160156 -0.046875 1.046875 -0.140625 C 0.929688 -0.242188 0.875 -0.363281 0.875 -0.5 L 0.875 -6.859375 C 0.875 -7.003906 0.921875 -7.125 1.015625 -7.21875 C 1.117188 -7.320312 1.238281 -7.375 1.375 -7.375 L 4.34375 -7.375 C 4.71875 -7.375 5.0625 -7.28125 5.375 -7.09375 C 5.695312 -6.90625 5.953125 -6.644531 6.140625 -6.3125 C 6.328125 -5.988281 6.421875 -5.625 6.421875 -5.21875 C 6.421875 -4.832031 6.316406 -4.46875 6.109375 -4.125 C 5.898438 -3.78125 5.628906 -3.523438 5.296875 -3.359375 C 5.554688 -3.222656 5.757812 -3.035156 5.90625 -2.796875 C 6.0625 -2.554688 6.144531 -2.28125 6.15625 -1.96875 C 6.1875 -1.570312 6.21875 -1.300781 6.25 -1.15625 C 6.289062 -1.007812 6.367188 -0.90625 6.484375 -0.84375 Z M 4.3125 -3.75 C 4.488281 -3.757812 4.65625 -3.828125 4.8125 -3.953125 C 4.976562 -4.085938 5.109375 -4.257812 5.203125 -4.46875 C 5.296875 -4.6875 5.34375 -4.925781 5.34375 -5.1875 C 5.34375 -5.53125 5.238281 -5.816406 5.03125 -6.046875 C 4.832031 -6.285156 4.582031 -6.40625 4.28125 -6.40625 L 1.921875 -6.40625 L 1.921875 -3.75 Z M 4.3125 -3.75 "/></g></g></g></svg>